<mxfile host="app.diagrams.net" modified="2023-08-14T15:57:03.916Z" agent="Mozilla/5.0 (Windows NT 10.0; Win64; x64) AppleWebKit/537.36 (KHTML, like Gecko) Chrome/115.0.0.0 Safari/537.36 Edg/115.0.1901.188" version="21.6.5" etag="pVQuxwzD9GlwtfRPkpjg" type="github">
  <diagram name="Page-1" id="7o2BQKhwry4IKvx5-zDe">
    <mxGraphModel>
      <root>
        <mxCell id="0" />
        <mxCell id="1" parent="0" />
      </root>
    </mxGraphModel>
  </diagram>
</mxfile>
